<?xml version="1.0" encoding="utf-8"?>
<svg viewBox="0 0 500 500" xmlns="http://www.w3.org/2000/svg" xmlns:bx="https://boxy-svg.com">
  <path d="M 475.5 291.696 Q 509.58 232.317 543.66 291.696 L 737.657 629.703 Q 771.737 689.082 703.576 689.082 L 315.584 689.082 Q 247.423 689.082 281.503 629.703 Z" style="transform-origin: 379.79px 362.772px; fill: rgb(253, 50, 10);" transform="matrix(-1, 0, 0, -1, 0, 0)" bx:shape="triangle 247.423 232.317 524.314 456.765 0.5 0.13 1@cc4498f8"/>
  <g transform="matrix(1.192555, 0, 0, 1.192555, -24.378031, -64.281815)" style="">
    <rect x="150.261" y="201.123" width="124.565" height="101.046" style="fill: rgb(255, 255, 255);" rx="14.808" ry="14.808"/>
    <path d="M 195.916 148.036 Q 212.544 130.589 229.172 148.036 L 283.895 205.453 Q 300.523 222.9 267.267 222.9 L 157.821 222.9 Q 124.565 222.9 141.193 205.453 Z" style="fill: rgb(255, 255, 255);" bx:shape="triangle 124.565 130.589 175.958 92.311 0.5 0.189 1@aafcb206"/>
  </g>
  <path style="fill: none; stroke: rgb(255, 255, 255); stroke-width: 9px; stroke-linejoin: round; stroke-linecap: round;" d="M 319.686 220.287 C 338.676 220.287 342.335 246.226 342.335 262.098 C 342.335 263.352 344.077 283.875 344.077 283.875 C 344.077 283.875 344.077 275.821 344.077 275.165 C 344.077 265.873 344.077 256.582 344.077 247.29 C 344.077 222.215 356.462 186.314 382.404 186.314"/>
</svg>