<?xml version="1.0" encoding="utf-8"?>
<svg viewBox="0 0 500 500" xmlns="http://www.w3.org/2000/svg" xmlns:bx="https://boxy-svg.com">
  <path d="M 475.5 291.695 Q 509.58 232.316 543.66 291.695 L 737.657 629.702 Q 771.737 689.081 703.576 689.081 L 315.584 689.081 Q 247.423 689.081 281.503 629.702 Z" style="transform-origin: 379.79px 362.772px; fill: rgb(248, 183, 18);" transform="matrix(-1, 0, 0, -1, 0, 0)" bx:shape="triangle 247.423 232.316 524.314 456.765 0.5 0.13 1@4c760f58"/>
  <g transform="matrix(1, 0, 0, 1, 2, 0)">
    <rect x="189.024" y="197.478" width="30" height="154.181" style="fill: rgb(255, 255, 255);" rx="15" ry="15"/>
    <g transform="matrix(1, 0, 0, 1, -3.034996, 0)">
      <rect y="111.837" width="18.676" height="89.721" style="fill: rgb(255, 255, 255);" rx="15" ry="15" x="162.344"/>
      <rect x="197.108" y="111.837" width="18.676" height="89.721" style="fill: rgb(255, 255, 255);" rx="15" ry="15"/>
      <rect x="233.178" y="111.837" width="18.676" height="89.721" style="fill: rgb(255, 255, 255);" rx="15" ry="15"/>
      <rect y="178.073" width="89.233" height="32.23" style="fill: rgb(255, 255, 255);" rx="15" ry="15" x="162.264"/>
    </g>
  </g>
  <g>
    <g>
      <rect x="287.784" y="102.199" width="30" height="253.484" style="fill: rgb(255, 255, 255);" rx="15" ry="15"/>
      <path d="M 260.972 228.804 C 263.095 155.734 278.671 83.351 306.268 72.881 C 311.259 70.988 317.592 77.951 317.592 84.205 L 317.592 228.804 C 317.592 235.058 312.522 240.128 306.268 240.128 L 273.167 240.128 C 266.913 240.128 260.811 234.349 260.972 228.804 Z" style="fill: rgb(255, 255, 255);"/>
      <path d="M 283.472 228.789 C 284.535 192.232 288.966 155.811 296.584 127.239 C 304.207 98.648 315.159 77.767 329.091 72.414 C 330.442 71.924 331.954 71.994 333.318 72.504 C 334.673 73.01 336.025 73.964 337.161 75.141 C 339.423 77.483 341.067 80.97 341.092 84.205 L 341.092 228.804 C 341.07 232.033 339.741 235.053 337.629 237.165 C 335.517 239.277 332.497 240.606 329.268 240.628 L 296.167 240.628 C 292.934 240.604 289.666 239.101 287.322 236.911 C 284.975 234.716 283.42 231.685 283.472 228.789 Z M 288.005 236.18 C 290.236 238.265 293.146 239.652 296.167 239.628 L 329.268 239.628 C 332.293 239.65 334.935 238.444 336.922 236.458 C 338.908 234.471 340.114 231.829 340.092 228.804 L 340.092 84.205 C 340.117 81.186 338.594 78.064 336.442 75.835 C 335.371 74.726 334.204 73.903 332.968 73.441 C 331.741 72.982 330.589 72.891 329.445 73.349 C 315.78 78.465 305.145 99.011 297.55 127.496 C 289.95 156.001 285.532 192.306 284.472 228.819 C 284.363 231.468 285.778 234.099 288.005 236.18 Z" style="fill: none;"/>
    </g>
  </g>
  <g transform="matrix(1, 0, 0, 1, 218.028122, 31.89893)"/>
</svg>