<?xml version="1.0" encoding="utf-8"?>
<svg viewBox="0 0 500 500" xmlns="http://www.w3.org/2000/svg" xmlns:bx="https://boxy-svg.com">
  <path d="M 326.633 159.814 L 398.076 159.814 C 404.326 159.814 409.393 164.881 409.393 171.131 L 409.393 212.158 C 409.393 218.408 404.326 223.475 398.076 223.475 L 386.404 223.475 L 386.404 189.522 C 386.404 183.272 381.337 178.205 375.087 178.205 L 347.5 178.205 C 341.25 178.205 336.183 183.272 336.183 189.522 L 336.183 223.475 L 326.633 223.475 C 320.383 223.475 315.316 218.408 315.316 212.158 L 315.316 171.131 C 315.316 164.881 320.383 159.814 326.633 159.814 Z" style="fill: rgb(29, 82, 66); transform-box: fill-box; transform-origin: 50% 50%;" transform="matrix(0.48481, 0.87462, -0.87462, 0.48481, 0.000032, -0.000026)"/>
  <path d="M 232.632 78.45 Q 256.453 36.945 280.274 78.45 L 415.874 314.709 Q 439.695 356.214 392.052 356.214 L 120.854 356.214 Q 73.211 356.214 97.032 314.709 Z" style="stroke-miterlimit: 3.42; transform-box: fill-box; transform-origin: 50% 50%; fill: rgb(29, 82, 66);" bx:shape="triangle 73.211 36.945 366.484 319.269 0.5 0.13 1@f470d6be"/>
  <ellipse style="fill: rgb(255, 255, 255);" cx="259.147" cy="305.226" rx="118.195" ry="118.195"/>
  <path d="M 278.637 267.834 C 343.914 267.834 383.175 317.902 360.284 367.161 C 339.542 401.22 302.059 423.964 259.264 423.964 C 208.218 423.964 164.73 391.604 148.194 346.28 C 143.584 333.644 213.36 267.834 278.637 267.834 Z" style="fill: rgb(189, 236, 49);"/>
  <ellipse style="fill: rgb(255, 255, 255);" cx="233.316" cy="316.296" rx="91.162" ry="74.108"/>
  <ellipse style="fill: rgb(63, 190, 152);" cx="212.323" cy="130.846" rx="25.97" ry="25.97"/>
  <rect x="214.427" y="226.359" width="112.698" height="97.998" style="fill: rgb(63, 190, 152);" rx="10.453" ry="10.453"/>
  <rect x="187.478" y="130.321" width="49.979" height="194.037" style="fill: rgb(63, 190, 152);" rx="15.679" ry="15.679"/>
  <rect x="172.777" y="130.321" width="79.379" height="13.721" style="fill: rgb(63, 190, 152);" rx="8.711" ry="8.711"/>
  <rect x="172.778" y="192.239" width="79.379" height="13.721" style="fill: rgb(63, 190, 152);" rx="8.711" ry="8.711"/>
  <ellipse style="fill: rgb(255, 255, 255);" cx="212.468" cy="168.05" rx="13.23" ry="13.23"/>
  <path d="M 269.957 190.776 Q 280.966 178.665 291.974 190.776 L 328.204 230.636 Q 339.213 242.747 317.195 242.747 L 244.736 242.747 Q 222.718 242.747 233.727 230.636 Z" style="fill: rgb(63, 190, 152);" bx:shape="triangle 222.718 178.665 116.495 64.082 0.5 0.189 1@d8ee4f53"/>
  <rect x="207.85" y="76.03" width="9.192" height="37.456" style="fill: rgb(63, 190, 152);" rx="5.898" ry="5.898"/>
  <rect x="195.241" y="86.692" width="33.65" height="8.252" style="fill: rgb(63, 190, 152);" rx="5.898" ry="5.898"/>
  <g transform="matrix(1, 0, 0, 0.891731, 2.517512, 73.731583)" style="">
    <rect x="263.069" y="232.274" width="31.139" height="49.631" style="fill: rgb(255, 255, 255);"/>
    <rect x="263.069" y="216.383" width="31.139" height="49.631" style="fill: rgb(255, 255, 255);" rx="15.569" ry="15.569"/>
  </g>
</svg>